<?xml version="1.0" standalone="no"?><!DOCTYPE svg PUBLIC "-//W3C//DTD SVG 1.1//EN" "http://www.w3.org/Graphics/SVG/1.1/DTD/svg11.dtd"><svg t="1639237070292" class="icon" viewBox="0 0 1024 1024" version="1.1" xmlns="http://www.w3.org/2000/svg" p-id="5929" xmlns:xlink="http://www.w3.org/1999/xlink" width="200" height="200"><defs><style type="text/css"></style></defs><path d="M512 512m-512 0a512 512 0 1 0 1024 0 512 512 0 1 0-1024 0Z" fill="#52C41A" p-id="5930"></path><path d="M797.76 337.92l-311.04 411.392c-18.752 24.96-57.6 24.96-76.352 0L226.24 505.856c-5.632-7.488 0-17.92 9.6-17.92h69.248c15.104 0 29.44 6.912 38.272 18.752l105.152 139.2 232.128-307.2A48 48 0 0 1 718.912 320h69.248c9.6 0 15.232 10.432 9.6 17.92z" fill="#FFFFFF" p-id="5931"></path></svg>